<mxfile host="app.diagrams.net" agent="Mozilla/5.0 (Windows NT 10.0; Win64; x64) AppleWebKit/537.36 (KHTML, like Gecko) Chrome/130.0.0.0 Safari/537.36" version="24.8.4">
  <diagram name="Page-1" id="Ia41jOG_DAkSB0BGFNO1">
    <mxGraphModel dx="1050" dy="522" grid="1" gridSize="10" guides="1" tooltips="1" connect="1" arrows="1" fold="1" page="1" pageScale="1" pageWidth="850" pageHeight="1100" math="0" shadow="0">
      <root>
        <mxCell id="0" />
        <mxCell id="1" parent="0" />
        <mxCell id="duH5eJ0xUVOtWFtcSYR5-1" value="System" style="swimlane;childLayout=stackLayout;resizeParent=1;resizeParentMax=0;startSize=20;horizontal=0;horizontalStack=1;" vertex="1" parent="1">
          <mxGeometry x="210" y="40" width="470" height="220" as="geometry" />
        </mxCell>
        <mxCell id="duH5eJ0xUVOtWFtcSYR5-2" value="Customer" style="swimlane;startSize=20;" vertex="1" parent="duH5eJ0xUVOtWFtcSYR5-1">
          <mxGeometry x="20" width="120" height="220" as="geometry" />
        </mxCell>
        <mxCell id="duH5eJ0xUVOtWFtcSYR5-9" value="" style="edgeStyle=orthogonalEdgeStyle;rounded=0;orthogonalLoop=1;jettySize=auto;html=1;" edge="1" parent="duH5eJ0xUVOtWFtcSYR5-2" source="duH5eJ0xUVOtWFtcSYR5-7" target="duH5eJ0xUVOtWFtcSYR5-6">
          <mxGeometry relative="1" as="geometry" />
        </mxCell>
        <mxCell id="duH5eJ0xUVOtWFtcSYR5-7" value="" style="ellipse;whiteSpace=wrap;html=1;aspect=fixed;fillColor=#000000;" vertex="1" parent="duH5eJ0xUVOtWFtcSYR5-2">
          <mxGeometry x="50" y="30" width="20" height="20" as="geometry" />
        </mxCell>
        <mxCell id="duH5eJ0xUVOtWFtcSYR5-6" value="place order" style="rounded=1;whiteSpace=wrap;html=1;" vertex="1" parent="duH5eJ0xUVOtWFtcSYR5-2">
          <mxGeometry x="20" y="80" width="80" height="40" as="geometry" />
        </mxCell>
        <mxCell id="duH5eJ0xUVOtWFtcSYR5-3" value="Order Processing Department" style="swimlane;startSize=20;" vertex="1" parent="duH5eJ0xUVOtWFtcSYR5-1">
          <mxGeometry x="140" width="190" height="220" as="geometry" />
        </mxCell>
        <mxCell id="duH5eJ0xUVOtWFtcSYR5-10" value="confirm payment and assemble order" style="rounded=1;whiteSpace=wrap;html=1;" vertex="1" parent="duH5eJ0xUVOtWFtcSYR5-3">
          <mxGeometry x="30" y="70" width="120" height="60" as="geometry" />
        </mxCell>
        <mxCell id="duH5eJ0xUVOtWFtcSYR5-4" value="Shipping Department" style="swimlane;startSize=20;" vertex="1" parent="duH5eJ0xUVOtWFtcSYR5-1">
          <mxGeometry x="330" width="140" height="220" as="geometry" />
        </mxCell>
        <mxCell id="duH5eJ0xUVOtWFtcSYR5-15" value="" style="edgeStyle=orthogonalEdgeStyle;rounded=0;orthogonalLoop=1;jettySize=auto;html=1;" edge="1" parent="duH5eJ0xUVOtWFtcSYR5-4" source="duH5eJ0xUVOtWFtcSYR5-11" target="duH5eJ0xUVOtWFtcSYR5-12">
          <mxGeometry relative="1" as="geometry" />
        </mxCell>
        <mxCell id="duH5eJ0xUVOtWFtcSYR5-11" value="ship order" style="rounded=1;whiteSpace=wrap;html=1;" vertex="1" parent="duH5eJ0xUVOtWFtcSYR5-4">
          <mxGeometry x="10" y="70" width="120" height="60" as="geometry" />
        </mxCell>
        <mxCell id="duH5eJ0xUVOtWFtcSYR5-12" value="" style="ellipse;html=1;shape=endState;fillColor=#000000;strokeColor=#ff0000;" vertex="1" parent="duH5eJ0xUVOtWFtcSYR5-4">
          <mxGeometry x="55" y="170" width="30" height="30" as="geometry" />
        </mxCell>
        <mxCell id="duH5eJ0xUVOtWFtcSYR5-13" value="" style="edgeStyle=orthogonalEdgeStyle;rounded=0;orthogonalLoop=1;jettySize=auto;html=1;" edge="1" parent="duH5eJ0xUVOtWFtcSYR5-1" source="duH5eJ0xUVOtWFtcSYR5-6" target="duH5eJ0xUVOtWFtcSYR5-10">
          <mxGeometry relative="1" as="geometry" />
        </mxCell>
        <mxCell id="duH5eJ0xUVOtWFtcSYR5-14" value="" style="edgeStyle=orthogonalEdgeStyle;rounded=0;orthogonalLoop=1;jettySize=auto;html=1;" edge="1" parent="duH5eJ0xUVOtWFtcSYR5-1" source="duH5eJ0xUVOtWFtcSYR5-10" target="duH5eJ0xUVOtWFtcSYR5-11">
          <mxGeometry relative="1" as="geometry" />
        </mxCell>
      </root>
    </mxGraphModel>
  </diagram>
</mxfile>
